<svg xmlns:xlink="http://www.w3.org/1999/xlink" class="logo-text" xmlns="http://www.w3.org/2000/svg" viewBox="0 0 643 62" width="643"  height="62" ><g fill="#1C1B19" fill-rule="nonzero"><path d="M.35 1.56l2.49.5c5.82 1.19 6.6 4.64 6.6 7.87v40.66c0 3.35-.8 6.6-6.6 7.78l-2.5.5v1.3h28.92v-1.3l-2.49-.5c-5.8-1.17-6.6-4.43-6.6-7.78V9.93c0-3.23.79-6.68 6.6-7.86l2.5-.5V.26H.34v1.3M589.58.27v20.16h1.22l3-7.46c2.93-7.34 5.99-11.32 13.77-11.32h3.23v48.94c0 3.17-.75 6.93-6.59 7.87l-2.51.4v1.31h28.92v-1.31l-2.51-.4c-5.84-.94-6.58-4.7-6.58-7.87V1.65h3.22c7.78 0 10.85 3.98 13.79 11.32l2.97 7.46h1.23V.27h-53.16M563.72 1.59l2.35.31c4.41.64 8.51 2.8 8.6 14.18l.24 27.3-23.22-27.45c-6.95-8.25-9.77-11.72-11.82-15.41l-.14-.25h-21.22v1.3l.39.07c4.37.8 7.1 2.57 11.69 7.6l.88.96v31.38c0 13.46-4.22 15.61-9.31 16.89l-1.72.42v1.28h23.78v-1.28l-1.7-.42c-4.55-1.2-9.25-2.43-9.33-16.89l-.24-29.83 42 49.51.14.17h1.3V16.07c0-11.39 4.34-13.55 8.59-14.17l2.35-.31V.27h-23.61v1.32M320.2 49.43c-4 6.82-8.88 9.36-18.03 9.36h-2.52c-5.08 0-7.35-2.48-7.35-8.02V30.04l3.72.07c9.13.17 11.63.57 14.45 9.35l1.03 3.2h1.26V15.84h-1.26l-1.03 3.3c-2.76 8.74-5.47 9.17-14.45 9.34l-3.72.07V1.65h6.42c10.74 0 15.58 2.23 19.2 8.85l4.1 7.4h1.18V.27h-50.73v1.3l2.5.5c5.5 1.11 6.6 3.73 6.6 7.6V50.6c0 3.18-.75 6.93-6.59 7.87l-2.5.4v1.31h53V42.54h-1.18l-4.1 6.89M509.82 49.43c-3.99 6.82-8.87 9.36-18.02 9.36h-2.53c-5.08 0-7.35-2.48-7.35-8.02V30.04l3.72.07c9.13.17 11.64.57 14.45 9.35l1.05 3.2h1.24V15.84h-1.25l-1.04 3.3c-2.75 8.74-5.46 9.17-14.45 9.34l-3.72.07V1.65h6.43c10.73 0 15.58 2.23 19.2 8.85l4.09 7.4h1.18V.27H462.1v1.3l2.5.5c5.49 1.11 6.6 3.73 6.6 7.6V50.6c0 3.18-.75 6.93-6.59 7.87l-2.51.4v1.31h53V42.54h-1.17l-4.11 6.89M118.52 50.51V1.65h7.6c15.15 0 24.2 10.68 24.2 28.57 0 18.15-8.55 28.57-23.44 28.57h-1.85c-5.4 0-6.51-3.3-6.51-8.28M128.65.27H75.2V1.6l2.35.31c5.4.78 8.53 3.08 8.6 12.49l.25 28.99-23.23-27.45C56.37 7.87 53.41 4.22 51.36.52l-.14-.25H29.99v1.3l.4.07c4.36.8 7.1 2.58 11.69 7.6l.88.96v31.39c0 13.45-4.22 15.6-9.32 16.88l-1.71.42v1.28H55.7v-1.28l-1.7-.42c-4.54-1.2-9.23-2.42-9.32-16.89l-.25-29.83 42.15 49.68h1.29v-48.4c0-7.55 3.35-11.38 9.96-11.38 6.61 0 9.96 3.83 9.96 11.39v37.55c0 3.5-.8 6.88-6.68 7.87l-2.41.4v1.31h29.95c10.35 0 19.02-3.2 25.1-9.22 5.46-5.44 8.47-12.89 8.47-20.99 0-8.05-3.01-15.41-8.48-20.72C147.7 3.37 139.02.27 128.65.27M417.34 50.51V1.65h7.6c15.15 0 24.2 10.68 24.2 28.57 0 18.15-8.55 28.57-23.44 28.57h-1.86c-5.4 0-6.5-3.3-6.5-8.28M427.47.27h-53.44V1.6l2.34.31c5.4.78 8.52 3.07 8.6 12.49l.25 28.99-23.23-27.45C355.04 7.67 352.22 4.2 350.17.52l-.13-.25H328.8v1.3l.4.07c4.36.8 7.1 2.58 11.69 7.6l.88.96v31.39c0 13.45-4.22 15.6-9.32 16.88l-1.71.42v1.28h23.78v-1.28l-1.7-.42c-4.55-1.2-9.25-2.42-9.33-16.89l-.24-29.83 42 49.51.15.17h1.28v-48.4c0-7.55 3.35-11.38 9.97-11.38 6.6 0 9.96 3.83 9.96 11.39v37.55c0 3.5-.81 6.88-6.67 7.87l-2.43.4v1.31h29.95c10.35 0 19.03-3.2 25.1-9.22 5.46-5.44 8.47-12.89 8.47-20.99 0-8.05-3.01-15.41-8.48-20.72-6.04-5.87-14.71-8.97-25.1-8.97M248.12.27h-25.9v1.29l2.48.5c5.8 1.18 6.6 4.44 6.6 7.78V50.6c0 3.35-.8 6.6-6.6 7.78l-2.49.5v1.3h30.01v-1.3l-1.98-.4c-6.83-1.43-8.12-2.81-8.12-8.72V1.65h2.55c9.24 0 14.76 6.24 14.76 16.7 0 10.46-5.52 16.7-14.76 16.7h-.65v1.46h4.1c13.52 0 22.96-7.47 22.96-18.16 0-10.65-9.44-18.08-22.96-18.08M211 49.43c-4 6.82-8.88 9.36-18.03 9.36h-2.52c-5.1 0-7.36-2.48-7.36-8.02V30.04l3.72.07c9.13.17 11.64.57 14.46 9.35l1.03 3.2h1.25V15.84h-1.25l-1.03 3.3c-2.75 8.74-5.47 9.17-14.46 9.34l-3.72.07V1.65h6.43c10.73 0 15.58 2.23 19.2 8.85l4.09 7.4H214V.27h-50.73v1.3l2.5.5c5.49 1.11 6.6 3.73 6.6 7.6V50.6c0 3.18-.75 6.93-6.59 7.87l-2.5.4v1.31h52.99V42.54h-1.18L211 49.43" fill="#1C1B19"></path></g></svg>