<svg xmlns:xlink="http://www.w3.org/1999/xlink" class="logo-stamp" xmlns="http://www.w3.org/2000/svg" viewBox="0 0 991.43 991.43" width="991.43"  height="991.43" ><path fill="#E30D24" class="logo-svg-cls-1" d="M495.72 0C221.95 0 0 221.95 0 495.72s221.95 495.71 495.72 495.71S991.43 769.5 991.43 495.72 769.5 0 495.72 0"></path><path fill="#FFFFFF" class="logo-svg-cls-2" d="M782.39 689.17c-9.79-5.44-6.79-3.7-53.94-31.63 0 0-36.09 6.82-82.74 16.92a16.4 16.4 0 0 1 2 .87 15.22 15.22 0 0 1 2.08 1.44 14.68 14.68 0 0 1 1.88 1.82 15.44 15.44 0 0 1 2.53 4.44 14.53 14.53 0 0 1 .53 2.28c.06.37.1.74.14 1.07s0 .69 0 1a6.77 6.77 0 0 1-.17 1.79 3.92 3.92 0 0 1-.31 1.25c-.22.67-.39 1.06-.39 1.06l-1.16-.06a7.79 7.79 0 0 1-.31-1.06 9.75 9.75 0 0 0-.37-1.12c-.14-.42-.29-.84-.48-1.34a14.2 14.2 0 0 0-.69-1.52c-.18-.53-.54-1-.8-1.6s-.62-1.08-1-1.6-.77-1-1.14-1.55-.84-1-1.31-1.39-.93-.87-1.4-1.3-.92-.8-1.43-1.09a15.44 15.44 0 0 0-1.38-.9 10.71 10.71 0 0 0-1.27-.73 9.58 9.58 0 0 0-1-.54l-9.9 2.2a4.84 4.84 0 0 1 .82.25 17.68 17.68 0 0 1 2.16.92 12.3 12.3 0 0 1 2.08 1.44 15.11 15.11 0 0 1 1.87 1.8 17.07 17.07 0 0 1 1.49 2.17 14.71 14.71 0 0 1 .94 2.26 17.66 17.66 0 0 1 .54 2.3c0 .35.09.72.13 1.05s0 .69 0 1a7.62 7.62 0 0 1-.16 1.77 5.39 5.39 0 0 1-.33 1.27 10.82 10.82 0 0 1-.41 1h-1.14s-.13-.37-.32-1.06a7.68 7.68 0 0 0-.36-1.13c-.14-.38-.28-.82-.49-1.32s-.42-1-.67-1.53-.55-1-.81-1.59a18.64 18.64 0 0 0-1-1.6c-.33-.54-.76-1-1.14-1.56s-.83-1-1.31-1.4-.92-.85-1.38-1.28-.93-.79-1.44-1.09a16.53 16.53 0 0 0-1.38-.92c-.44-.28-.88-.51-1.27-.71a9 9 0 0 0-1-.55l-.72-.35-26.53-22.62 1-6.77-2.81-15.86 2.66-6.81v-22.61l-29 25.91-.8-.77 85.14-100.12-.74-1.74-24.84-4.47.07-1.19h44.6c4.63 5.84 14.53 7.45 21.67 5.46l.34-1-9-14.39s2.05-1.5 3.66-2.5c3.6-2.19 6.77-1.25 10.29 3.82 3.36 4.87 4.92 11 1.11 14.82l.58 1.09a22.8 22.8 0 0 0 14.82-8.49c4.94-6.6 4.24-16.68-2-24-5.28-6-14.77-15.51-14.77-15.51.94-11.35-4.94-21.3-16-25.74-24-9.68-42.3-16.56-42.3-16.56l-57.91-.09-.18-1.33 57.6-6.75 17.29-15.23 65.4-26.12a15.44 15.44 0 0 0 9-9.45c8.48-23.32 34.55-93.15 34.55-93.15L848.72 178l-.66-.95-52.9 37.77-.79-.83 22.48-45-1-.61-34.63 49.83-1.11-.37 4.14-49.78-1.25-.28-12.61 50.6h-1.15l-20.47-50.66-1.13.43 14.88 60.37-1.7 28.39-1.14.12-3.32-24.94-35.64-60.74-1 .57 28.72 64.14 2.17 47.31-1.19.11-6.23-44.22-46.76-59.23-.91.72 40.36 61.9 2.65 65.07-1.13.11-8.22-61.57-52-54.37-.85.8 44.17 57.69 5.22 74.78-1.21.09-11.9-71.13-54-46.26-.81.94 46.66 50.48 8 78.09-1.11.23-15.8-73.47-54.75-37.34-.71.92 46.78 41.53 12.77 77.17-1.2.25-20.36-72.08-52-28.47-.65 1 44.62 32.61 14.6 74.81-1.16.26-23.32-68.57-48.83-18.58-.53 1.13 41 23.28 17 68.39-1.14.35-25.83-61.32-46.36-8.34-.23 1.18 38.3 13.69 19.64 59.63-1 .48-29.54-50.83-38.94-3.18-.23 1.19 30.55 10 22.88 48.21-1 .65-31.82-38.74-35.29 2.13-.12 1.15 27.94 5.23 25.56 37.46-.75.78-33.34-27.44-37.56 8.4.13 1.26 30.81.11 28.38 26.63-.63 1-34.34-16.1-39.3 6.08v1.27l35.06 1.42 29.68 18.81-.44 1.1-32.71-11.18-52.75 10 .11 1.18 49.46-1.1 30.19 13.89-.35 1.1-31.66-7.49-79.69 13.36.05 1.19 62.5 4.76.13 1.11-50.07 8.94.08 1.14 34.14 2 .06 1.24-39.28 10.11h.17H490.09l16.7 21.77-.92.89-38.15-32.16-98.09-136.27-89.37-45.77-70.85-63.78-21.45-58.74-1.13.33 7.77 66.25 34.42 55.25-1 .78-50-41.52-23.79-46-1.31.31 8.39 54 24.41 44.27-.79.79-39.86-32.44-20.58-30.9-1.19.54 9.56 41.77 25.48 37.4-.84.77-39.48-22.68-17.47-22-1.15.56 11.32 32.52 18.24 22.95-.56.91-18.22-3.5-.5 1.16 38.84 36.44-.4 1.07-33.76-1.94-.25 1.66 48.17 29.74-.21 1.15-22.35 1.8-.14 1.19 55.81 21.3v1.07l-21.83 7.56.23 1.27 134.69 9.84-.07 1.13-75 .51-1.42 15.44 94-1.54v1.16l-67.31 7.23-2.92 18.28 91.48-12.56.24 1.12-71.38 16.39-1.14 21.15 94-25.72.41 1.16-77.5 30.27.44 19.36 94.92-39.58.48 1-76.66 41.36 2.67 19.81 93-47.37.55 1-75.94 48.24 4.24 16.79 89.76-49.29.61 1-69.66 46.52 6.72 17.85 73.93-44.19.78 1-48.59 36 8.46 16.93 36-22 .62.88-13.48 11.75 6.7 13.44c1.93-.7 4.67-1.66 7.93-2.84s7.2-2.57 11.34-4c2.08-.73 4.26-1.49 6.25-2.29 1-.38 2-.92 3-1.37s2-1.05 2.93-1.62a41.82 41.82 0 0 0 5.43-3.92l1.25-1.08 1.18-1.14a29.1 29.1 0 0 0 2.2-2.37c.72-.77 1.32-1.62 2-2.42s1.16-1.65 1.74-2.45 1-1.67 1.46-2.47.83-1.61 1.22-2.37a41.71 41.71 0 0 0 1.77-4.36c.52-1.32.78-2.5 1.07-3.46s.41-1.77.53-2.32l.19-.81 1.21.21s0 .29-.1.84-.17 1.33-.34 2.37-.41 2.32-.84 3.72a45 45 0 0 1-1.47 4.67c-.35.82-.7 1.71-1.09 2.61s-.88 1.75-1.32 2.7-1.06 1.84-1.63 2.77-1.19 1.87-1.89 2.78-1.37 1.85-2.17 2.72l-1.16 1.33-1.32 1.21a46.2 46.2 0 0 1-5.55 4.74c-1 .7-2 1.4-3.08 2s-2.1 1.27-3.23 1.79c-2.2 1.15-4.29 2-6.31 2.85-4 1.74-11.06 4.78-11.06 4.78l-103.67 38.84-67.71 106.17 4.07 2.72 75.58-87.83.88.7-44.9 66.24 27.63-4.34 41.54-61.43 1 .6-30.32 59.65 26-1.74h.06l28.1-57.57 1.14.46-19.11 56.56 26.36-1.79 16.42-54.15 1.22.25-9.18 53 26.87-5.25 5.78-48.72 1.23.13v46.22l19.93-11.18-2.92-35 1.14-.23 7 32 7.13 4 5.23 14.36 7.88 2.7 15.78 12.8 6 4.87-.16.31-.35.66-10.31-4.52a3611.7 3611.7 0 0 0-114.48 33.44l.15.06c10 5.74 24.35 14 38.72 22.17l19.08 10.92c3 1.73 6 3.4 8.78 5 .7.39 1.37.8 2.06 1.19.34.18.68.36 1 .56l.52.29.23.15.11.08.25.14a22.34 22.34 0 0 1 3.63 2.92 16.33 16.33 0 0 1 4.21 7 16 16 0 0 1 .45 6.26 16.51 16.51 0 0 1-1 3.86l-.54 1.3-1.31-.53s.12-.44.4-1.24a16.36 16.36 0 0 0 .57-3.55 13.1 13.1 0 0 0-.77-5.4 14.06 14.06 0 0 0-4-5.64 16.46 16.46 0 0 0-3.37-2.25l-.24-.17h-.14l-.49-.21c-.36-.15-.72-.32-1.07-.45l-2.18-1c-2.93-1.3-6.05-2.67-9.26-4.05-6.43-2.82-13.3-5.81-20.14-8.83l-12.87-5.65c-9.64 3.08-24.15 7.68-29.7 9.47-12.74 4.06-11.85 20.9.1 25.42a2016.1 2016.1 0 0 0 54.15 19.77c15.23 5.41 25.93 3.65 39.55-2.56 9.83-4.5 27.27-12.48 47.53-21.63 33.67-17.88 81.16-56.14 81.16-56.14l.83.87-37.1 35.22c25.2-11.22 49.63-21.84 65.82-28.38a443.06 443.06 0 0 0 55.07-33.2l.81.8-25.44 23.11c28.85-5.6 76.15-10 101.7-10 33.94.03 34.7-29.32 16.71-39.32zm-86.14-202c4.55 4.39 9.2 8.67 13.8 13l.07.09a18.49 18.49 0 0 1 1.43 1.8 10.23 10.23 0 0 1 .62 1c.21.31.36.67.55 1a14.74 14.74 0 0 1 .84 2.15 11.78 11.78 0 0 1 .49 2.21 11.25 11.25 0 0 1 .12 2.25 8.29 8.29 0 0 1-.06 1.13c0 .4-.15.76-.2 1.11a12.48 12.48 0 0 1-.66 2.18c-.14.32-.33.68-.5 1l-.56.89-1-.55.45-1a5.74 5.74 0 0 0 .34-.88 11.74 11.74 0 0 0 .41-1.92 8 8 0 0 0 0-1v-1a10.23 10.23 0 0 0-.31-1.93 9.6 9.6 0 0 0-.65-1.84 10.61 10.61 0 0 0-.9-1.7 6.73 6.73 0 0 0-.55-.78 9.38 9.38 0 0 0-.6-.75 15.34 15.34 0 0 0-1.26-1.29c-5.08-3.76-10.08-7.6-15.22-11.33zm-27.17-12.08a6.31 6.31 0 0 1 1.07-2.6 4.15 4.15 0 0 1 .28-.36 3.07 3.07 0 0 1 .51-.62c.27-.25.55-.47.81-.68a5.5 5.5 0 0 1 1.28-.76l.3-.15c.9-.18 1.34-.25 1.34-.25l.31-.05.8 1.6-.21.22a9.16 9.16 0 0 1-.93.84.68.68 0 0 1-.18.31l-.29.48-.28.57a.88.88 0 0 1-.08.27 2.68 2.68 0 0 1-.12.37 1 1 0 0 0-.06.33 1.76 1.76 0 0 1 0 .34 2.37 2.37 0 0 0 0 .46v.2a1.54 1.54 0 0 0 .08.57 2.19 2.19 0 0 0 .24.77V477.12l.33.53a.82.82 0 0 0 .25.36.65.65 0 0 1 .22.26l.14.08a1.71 1.71 0 0 1 .4.33l.21.1.38.22a4.32 4.32 0 0 0 1.29.29 4.24 4.24 0 0 0 1.33-.17l.55-.23.24-.12c.22-.11.34-.16.42-.28a2.2 2.2 0 0 0 .52-.44 3.46 3.46 0 0 1 .23-.26.75.75 0 0 0 .21-.25l.17-.3a2.16 2.16 0 0 0 .21-.35c.08-.21.19-.42.24-.58a3.29 3.29 0 0 0 .18-.72c0-.14.07-.29.11-.41a6.62 6.62 0 0 1 0-1.06v-.26l1.35-.51.2.28a8.89 8.89 0 0 1 .7 1.21l.12.39a5.94 5.94 0 0 1 .32 1.32v1a4 4 0 0 1-.14.94l-.06.3a6.45 6.45 0 0 1-1.21 2.6 7.33 7.33 0 0 1-2.38 2.1l-.23.18-.37.17-.23.09-.78.25a5.74 5.74 0 0 1-1.7.31h-.59a8.84 8.84 0 0 1-3.15-.67l-.42-.23a6.71 6.71 0 0 1-1.22-.77 4.79 4.79 0 0 1-.69-.59 5.33 5.33 0 0 1-.67-.72 6.39 6.39 0 0 1-1-1.61l-.39-.85-.06-.33-.1-.36v-.23a6.82 6.82 0 0 1-.15-1.5 5.21 5.21 0 0 1 .35-1.52zm-1.73 32.94a8.49 8.49 0 0 1 1.3-2.48 7.59 7.59 0 0 1 .89-1l.41-.37.2-.18.1-.08h.05l.21-.21a10.73 10.73 0 0 1 2.55-1.19 7.17 7.17 0 0 1 3.91-.21 4.85 4.85 0 0 1 1.19.31c.36.15.72.27 1 .43a10.08 10.08 0 0 1 .87.57 8.59 8.59 0 0 1 .77.59l.6.66.48.6a4.63 4.63 0 0 1 .24.51c.27.6.39 1 .39 1l-.89.77a9.93 9.93 0 0 1-.89-.53 4.15 4.15 0 0 0-.47-.27c-.18-.05-.31-.12-.49-.18a6.32 6.32 0 0 0-1.12-.32 3.59 3.59 0 0 0-.89-.13s-.24 0-.45-.05a1.8 1.8 0 0 0-.73 0c-.25.05-.48 0-.74.05a7 7 0 0 0-1.42.44 6.06 6.06 0 0 0-1.31.68l-.2.16-.42.36a2.37 2.37 0 0 0-.54.55 8.25 8.25 0 0 0-.82 1.1c-.14.21-.17.45-.31.68a1.71 1.71 0 0 0-.27.66 7.51 7.51 0 0 0-.31 1.37 5.92 5.92 0 0 0 0 1.24v.57a3.65 3.65 0 0 0 .06.49 7.31 7.31 0 0 1 .16 1l-.7.52a8.78 8.78 0 0 1-.83-.75c-.13-.14-.3-.29-.44-.47s-.23-.37-.37-.6-.25-.47-.43-.73a6.66 6.66 0 0 1-.29-.89c-.08-.31-.2-.65-.27-1s0-.75-.06-1.12a8.88 8.88 0 0 1 .28-2.53zM221.1 223.22l1.47-1 39.9 53.08 65.52 31.42-.89 1.78-70.38-27.14zM157 267.36l1.27-1.39 42.77 40.2 86.58 28-.64 1.85-91.58-23.3zm-22 23.32l1.23-1.22 46.06 37.44 102.26 28.08-.48 1.85-106.35-22.95zm8.24 55.45l.54-1.82 141.7 29.21-.41 2-105-16zm151.24 49.3l-74.54-6.83-37.71-11 .49-1.88 112 17.73zm3.11-77l-75.7-25.13-31.33-43.11 1.37-1.09 36.28 38.62 70.12 28.9zm9.46 27.09l-1.27-.61.14-16.35 1.61-.15 1.81 9.84 33.24-17 .81 1.32zm4.67 25.25l.21-16.31 1.56-.2 1.79 9.84 43.94-23.3.82 1.32-47.1 29.27zm13.9 23.19l-1.28-.71.29-16.35 1.45-.16 1.81 9.85 46.52-25.19.82 1.3zm18.53 19.09l-1.3-.62.16-16.38 1.58-.16 1.81 9.87 45.53-23.77.8 1.29zm23.23 16.5l-1.18-.73.2-16.26 1.56-.23 1.81 9.87 40.1-20.85.84 1.3zm25 15.79l-1.16-.62.25-16.11 1.47-.2 1.83 9.66 33.21-17 .8 1.33zm24.66 15.07l-1.34-.58.25-15.6h1.51l1.79 9 23.81-11.32.82 1.29zm20.19 15.16l-1.18-.67.64-13h1.45l1.5 6.82 16.84-7.38.73 1.2zm15.23 16.47l-1.16-.83 1.42-11.87 1.44.12.68 5.81 20.51-9.09.82 1.32zm12.3 37l-1.09-.84 1.6-9.44 1.43.13.33 3.55 9.79-4 .78 1.25zm-3.83-19.72l-1.27-.77 1.57-9.44 1.44.08.48 3.64 14.57-7.06.8 1.27zm-56 111.1l-.85-.74 2.36-4.24-4.47-1.93.23-1.11h11.38l.36 1zm32 0l-.85-.74 2.36-4.24-4.46-1.93.21-1.11h11.4l.36 1zm8.37 186l-11.49-3.94c-3.83-1.3-7.64-2.65-11.49-3.84l-22.95-7.38-.28-.08a3 3 0 0 1-2-3.84 3 3 0 0 1 2.08-2l23.58-6.55.42 1-15.62 8.2 16.1 7.13c3.73 1.62 7.37 3.34 11 5.06l11 5.12zm121.54-201.21l-1-.59 2.07-5.87-6.05-1.51.05-1.12 14-2.32.52 1zm-24.4-34.79l-.13-1.09 21.13-7 .65.85-12.37 18.54-1-.42 1.86-9.95zm-9.07 43.2v-1.12l11.22-1.94.53.95-7.67 8.44-1-.59 1.55-4.59zm.89-77.21l-.09-1.13 21.37-6.21.62.9-13.07 18-1-.47 2.21-9.86zm55.25 42.7l-1-.56 2-5.9-6-1.5v-1.12l14-2.3.52.93zm17.21-54.28l2.53-5.71-5.92-2 .12-1.11 14.18-1.24.44 1-10.43 9.69zm18.49-62.32h11.39l.34 1-9 7-.86-.74 2.36-4.25-4.46-1.94zm-5.72 83.15l-7.77 8.38-1-.57 1.61-4.6-4.67-1.15v-1.12l11.28-1.88zm-.69-62.18l-14 10.91-.85-.74 3.83-7-7.31-3.16.25-1.09h17.77zm-26.14-28h14.24l.34 1-11.22 8.74-.86-.74 3-5.46-5.74-2.47zm-1.41 80.69l-11.32 13.72-1-.5 2.2-7.64-7.81-1.49v-1.12l17.36-3.89zm-1.58-34.3l.55.92-14 16.12-1-.55 2.92-9.21-9.45-2v-1.11zm-7.57-25.69l-14.09 10.85-.85-.74 3.87-6.93-7.31-3.2.25-1.09 17.79.08zm-26.81-20.7h11.37l.34 1-9 7-.85-.73 2.34-4.26-4.46-1.93zm-5.12 41.67l.5 1-15.41 16-1-.59 3.56-9.47-9.77-2.62v-1.11zm-35.12 93v-1.13l17.41-3.64.55.93-11.52 13.57-1-.53 2.3-7.61zm7.88-119.59h17.79l.34 1-14 10.9-.84-.73 3.83-7-7.33-3.01zm-.95 86.79l-10.7 14.22-1-.5 1.87-7.73-7.87-1.12-.07-1.11 17.18-4.66zm-5.41-28.49l-11.06 13-1-.54 2.22-7.29-7.45-1.52v-1.14L516 527.9zm-20-25.43l14.05-2.3.52.93-9.67 10.47-1-.59 2.07-5.87-6.05-1.5zm-36.68 98.36l-.86-.74 2.36-4.25-4.48-1.92.26-1.11h11.39l.34 1zm9.33 25.12l-.86-.74 2.36-4.15-4.46-2 .24-1.1h11.38l.34 1zm12.94-42l-.87-.7 2.84-5.56-5.82-2.29.19-1.12 14.24-.45.36 1zm8.84 23.83l-.85-.73 3-5.47-5.73-2.48.25-1.1h14.22l.36 1zm13.8 20.37l-.86-.73 2.36-4.26-4.47-1.94.23-1.08h11.4l.36 1zm-48.79 117.84c-1.35.45-2.66.83-3.88 1.21l-3 .91c-1 .35-2 .61-2.81.86l-4 1.21-.64-1.76.34-.15s1.29-.51 3.53-1.48l4.11-1.64 1.06-.45c1.3-.52 2.72-1.1 4.25-1.69a585.6 585.6 0 0 1 11.9-4.47l1.51-.53 3-1.07c4.06-1.45 8.26-3 12.53-4.38a941.9 941.9 0 0 1 15.66-5l2.18-.68c1.75-.54 3.43-1 5-1.5l6.56-1.72c3.07-.82 5.77-1.47 7.94-2l1.88-.47c2.38-.56 3.77-.85 3.77-.85l.34-.08.52 1.77-.34.15-3.62 1.32c-.74.26-1.61.55-2.53.9-2 .68-4.34 1.53-7 2.4l-6.41 2.14-1.46.52c-1.82.61-3.71 1.27-5.66 1.92-5 1.73-10.22 3.47-15.52 5.15l-4.09 1.36c-3.91 1.26-7.76 2.53-11.45 3.74-1.9.61-3.74 1.16-5.5 1.73-2.98.94-5.71 1.79-8.17 2.63zm122-22.57c-1.16.38-2.44.86-3.91 1.36-2.63.94-5.73 2.06-9.25 3.24l-2.19.75c-2.09.72-4.31 1.47-6.61 2.28-3.2 1.05-6.53 2.27-9.78 3.43l-21.24 7.6c-4.67 1.6-9.29 3.3-13.77 5-2.53.92-5 1.84-7.45 2.71-2.27.87-4.53 1.65-6.7 2.42l-3.07 1.08c-2.12.75-4.16 1.51-6.1 2.21l-2.64 1a650.2 650.2 0 0 1-9.38 3.37c-1.39.5-2.64 1-3.73 1.34l-5 1.77-.35.1-.7-1.74.36-.17 4.86-2.1c1.06-.43 2.27-.95 3.62-1.54 2.6-1.1 5.73-2.43 9.23-3.85l1.82-.77c2.13-.89 4.4-1.85 6.8-2.77 1-.42 2.05-.82 3.11-1.24 2.12-.83 4.31-1.7 6.58-2.55l7.53-2.87c4.44-1.69 9-3.44 13.67-5.08 7.24-2.52 14.53-5 21.35-7.38l5-1.73 4.87-1.47c3.18-1 6.17-1.87 8.93-2.69 3.52-1.08 6.68-2 9.34-2.74 1.52-.45 2.89-.81 4-1.18l5.51-1.55.54 1.79zm-48.95-22v-.07l.08-1.07a11.28 11.28 0 0 1 1.13-.23 5.17 5.17 0 0 1 1.32-.1 6.35 6.35 0 0 1 1.71.1c.13 0 .27 0 .41.07l.6.1a9.67 9.67 0 0 1 1 .28 15.74 15.74 0 0 1 2.19.89 13.88 13.88 0 0 1 2.1 1.36 14.87 14.87 0 0 1 1.92 1.81l.58.73a9.42 9.42 0 0 1 .94 1.39 15.52 15.52 0 0 1 1.09 2.25 12.71 12.71 0 0 1 .6 2.29l.15 1.06v1a7.7 7.7 0 0 1-.14 1.77 4.5 4.5 0 0 1-.29 1.28c-.22.67-.37 1-.37 1h-1.15l-.36-1a5.75 5.75 0 0 0-.39-1.12 12 12 0 0 0-.52-1.34 10.92 10.92 0 0 0-.7-1.48 15.19 15.19 0 0 0-.83-1.6c-.36-.5-.65-1.07-1.05-1.57s-.78-1-1.16-1.52-.68-.74-1-1.05a1.65 1.65 0 0 0-.36-.34c-.44-.46-.94-.83-1.38-1.27s-1-.76-1.45-1a16.41 16.41 0 0 0-1.44-.88c-.44-.27-.87-.5-1.26-.7s-.76-.4-1.06-.52l-.92-.49zm34.64-9a4.43 4.43 0 0 1 .43.12 15.56 15.56 0 0 1 2.19.87 12.38 12.38 0 0 1 2.1 1.4 14.6 14.6 0 0 1 1.92 1.77 12.38 12.38 0 0 1 1.52 2.13 14.75 14.75 0 0 1 1.11 2.26 15 15 0 0 1 .58 2.28c0 .37.1.72.15 1.07s0 .67 0 1a9.66 9.66 0 0 1-.12 1.77 4.69 4.69 0 0 1-.29 1.27c-.22.65-.38 1-.38 1h-1.15a10.69 10.69 0 0 1-.35-1.07c-.1-.33-.24-.74-.39-1.12s-.31-.82-.53-1.32a14 14 0 0 0-.69-1.48 16.32 16.32 0 0 0-.85-1.59c-.34-.52-.65-1.08-1-1.58s-.79-1-1.18-1.52-.86-1-1.33-1.39-1-.83-1.42-1.25a17.52 17.52 0 0 0-1.46-1.07 17.08 17.08 0 0 0-2.68-1.57 10.26 10.26 0 0 0-1-.53 2.58 2.58 0 0 1-.42-.17c-2.89.72-5.74 1.45-8.6 2.19-.39.1-.8.18-1.19.3h.05c.33.08.67.18 1 .3a18.19 18.19 0 0 1 2.17.87 13.23 13.23 0 0 1 2.1 1.4 12.66 12.66 0 0 1 1.92 1.75 15 15 0 0 1 1.54 2.14 14.25 14.25 0 0 1 1.09 2.27 18.31 18.31 0 0 1 .6 2.28c.05.35.09.72.15 1v1a9.83 9.83 0 0 1-.11 1.77 7.45 7.45 0 0 1-.3 1.3 6.88 6.88 0 0 1-.39 1h-1.15s-.15-.37-.34-1a8.79 8.79 0 0 0-.39-1.16c-.15-.38-.29-.81-.51-1.28s-.44-1-.7-1.54-.59-1-.84-1.57-.65-1.06-1-1.56-.81-1-1.2-1.52a16 16 0 0 0-1.33-1.39c-.44-.47-1-.83-1.4-1.27s-1-.77-1.46-1.07-.95-.61-1.41-.87l-1.26-.7c-.41-.18-.75-.38-1.07-.5l-.8-.4-15.46-17.78-7.52-42.63 1.49-.65 29.32 35.79 10.22-.18 26.22 14.57c-8.09 1.9-16.18 3.89-24.18 5.89zm46.64-11.1l.07-.9s.42-.08 1.15-.19a5.78 5.78 0 0 1 1.31-.08 10.53 10.53 0 0 1 1.76.15h.11c.26 0 .54.08.82.13s.68.22 1 .32a12.42 12.42 0 0 1 4.24 2.35 10.09 10.09 0 0 1 1.5 1.42c.14.13.26.27.38.4a13.46 13.46 0 0 1 1.49 2.17 17 17 0 0 1 1 2.27 14 14 0 0 1 .55 2.29c0 .35.08.73.13 1.07s0 .68 0 1a6.93 6.93 0 0 1-.18 1.77 5.5 5.5 0 0 1-.3 1.28c-.24.65-.42 1-.42 1h-1.14s-.15-.4-.33-1.08a7.67 7.67 0 0 0-.35-1.14l-.5-1.32c-.19-.5-.41-1-.66-1.51s-.55-1-.82-1.61-.64-1.08-1-1.58a17.61 17.61 0 0 0-1.15-1.54c-.45-.48-.84-1-1.3-1.42a4.37 4.37 0 0 0-.67-.63 11.4 11.4 0 0 1-.71-.67c-.51-.32-.94-.79-1.44-1.1s-.94-.65-1.38-.9-.89-.49-1.26-.72-.74-.4-1-.54l-1-.48zm36.58 23.6l-1.81.59-1.39.42c-1 .3-2.14.66-3.44 1a258.97 258.97 0 0 1-14.5 3.52l-1.41.32c-2.29.53-4.54 1.05-6.68 1.5-2.3.5-4.63 1-7 1.38-1.37.26-2.6.44-3.62.59-.5.1-.92.17-1.32.23-1.21.17-1.9.25-1.9.25h-.34l-.43-1.74.31-.15s.67-.25 1.82-.63l1.07-.37c1-.34 2.26-.77 3.69-1.2 4.45-1.41 9.8-2.87 14.65-4 2.69-.56 5.44-1.15 8-1.58s5-.87 7-1.17c1.34-.2 2.56-.33 3.56-.47l1.43-.18c1.22-.15 1.92-.19 1.92-.19h.35l.34 1.75zm17-16.84h-.34l-.36-1.82.32-.1 2.34-.63a417.31 417.31 0 0 1 6.19-1.55 443.5 443.5 0 0 1 18.92-4l.24-.07c3.32-.6 6.75-1.23 9.93-1.77s5.87-.87 8.38-1.2l.53-.07c1.86-.23 3.5-.4 4.84-.55l1.5-.15c1.54-.17 2.41-.23 2.41-.23h.36l.31 1.8-.34.09s-.85.25-2.35.62l-1.68.4c-1.26.3-2.8.68-4.52 1.05-1.48.35-3.1.68-4.82 1-1.29.25-2.62.54-4 .82-2.71.6-5.58 1.15-8.48 1.72l-1.6.33a449.57 449.57 0 0 1-23.72 3.78c-.61.06-1.16.15-1.64.2-1.62.29-2.47.36-2.47.36zm77.94 2.22c-.9.15-2 .33-3.16.55-1.61.28-3.45.62-5.52.94-1.18.18-2.43.38-3.72.6-2.67.45-5.53.9-8.55 1.35l-6.93 1.07-1.53.23c-1.85.29-3.74.55-5.61.85l-5.58.77c-3 .42-5.76.79-8.53 1.25-1.67.25-3.33.47-4.91.7l-1.58.22c-2.07.28-4 .57-5.81.82-2.3.33-4.36.58-6.09.77l-2.67.33-3.67.42-.32-1.82 3.62-.84c.75-.16 1.59-.35 2.54-.53 1.73-.38 3.78-.83 6.09-1.29 1-.18 2.05-.41 3.16-.61l2.61-.52 2.56-.49c1.24-.26 2.54-.53 3.88-.76 2.1-.39 4.49-.84 6.93-1.19l7.17-1.08 7.2-1 7-.93c2.87-.35 5.59-.64 8.21-.89l4.07-.46c3.06-.35 5.66-.54 7.75-.67l1.06-.07c2.14-.17 3.33-.2 3.33-.2h.36l.23 1.85z"></path></svg>